:SAMPLES-PER-SECOND 30
:FULLY-SPECIFIED
:DEGREES
595
root  -38.902 34.6508 6.42482 -175.201 42.7066 177.515
RightUpLeg  -17.4497 -15.1467 -3.2903
RightLeg  4.73195 2.05608 0.0386185
RightFoot  16.9358 -0.0432721 0.743092
RightToes  -26.7426 -0.120697 -0.226409
Spine  -1.6663 0.652543 -1.55352
Spine1  -3.35501 1.4001 -2.37496
HEad  -78.3918 -0.664554 11.2749
LeftShoulder1  -1.94126e-019 -3.10601e-018 -2.51263e-017
LeftArm  12.8318 29.412 -70.7174
LeftForeArm  126.052 -73.9932 -138.671
LeftHand  0.233398 -1.11467 -4.07862
RightShoulder  -4.96962e-017 0 -2.36833e-017
RightArm  19.1404 -23.0263 71.5858
RightForeArm  145.835 79.7217 120.183
RightHand  -0.0163678 4.14246 -0.473674
LeftUpLeg  -6.19062 2.50012 -8.62021
LeftLeg  5.91512 21.3665 0.81324
LeftFoot  -1.34646 -0.00612542 -0.359724
LeftToes  -1.97726 1.49739e-006 1.00523e-007
596
root  -38.9031 34.6501 6.42129 -175.106 42.718 177.509
RightUpLeg  -17.5949 -15.1902 -3.26015
RightLeg  4.80621 2.10825 0.0423166
RightFoot  16.929 -0.0446205 0.757758
RightToes  -26.6953 -0.121331 -0.227004
Spine  -1.66289 0.681182 -1.61557
Spine1  -3.35197 1.45456 -2.49968
HEad  -78.4227 -0.844583 10.9772
LeftShoulder1  -1.94126e-019 -3.10601e-018 -2.51263e-017
LeftArm  12.8966 29.4923 -70.4933
LeftForeArm  125.953 -73.9688 -138.72
LeftHand  0.257727 -1.38382 -4.30755
RightShoulder  -4.96962e-017 0 -2.36833e-017
RightArm  19.6423 -22.9979 71.4714
RightForeArm  145.433 79.8398 119.255
RightHand  -0.0104947 4.34129 -0.406787
LeftUpLeg  -6.12395 2.60639 -8.63147
LeftLeg  5.5722 21.2477 0.684554
LeftFoot  -1.25302 -0.00454955 -0.319994
LeftToes  -2.01559 1.49739e-006 1.00523e-007
597
root  -38.8945 34.6518 6.40674 -174.983 42.664 177.517
RightUpLeg  -17.6204 -15.3315 -3.22151
RightLeg  4.67869 2.2051 0.0392962
RightFoot  16.9739 -0.0469542 0.787067
RightToes  -26.7541 -0.12198 -0.227641
Spine  -1.68092 0.702427 -1.67703
Spine1  -3.39137 1.49346 -2.62143
HEad  -78.2238 -1.08025 10.6072
LeftShoulder1  -1.94126e-019 -3.10601e-018 -2.51263e-017
LeftArm  13.1008 29.6949 -70.2988
LeftForeArm  125.993 -73.9832 -138.69
LeftHand  0.282258 -1.57131 -4.5832
RightShoulder  -4.96962e-017 0 -2.36833e-017
RightArm  20.2211 -22.9634 71.3264
RightForeArm  144.959 79.9582 118.266
RightHand  -0.0163832 4.47787 -0.47906
LeftUpLeg  -6.06718 2.70613 -8.63489
LeftLeg  5.25484 21.0872 0.56538
LeftFoot  -1.15669 -0.00444466 -0.278758
LeftToes  -2.05187 1.49739e-006 1.00523e-007
598
root  -38.8778 34.6561 6.38518 -174.768 42.5183 177.579
RightUpLeg  -17.5542 -15.5583 -3.13678
RightLeg  4.32834 2.28144 0.0266344
RightFoot  17.0641 -0.0489817 0.812419
RightToes  -26.7759 -0.122638 -0.228311
Spine  -1.72024 0.730595 -1.7389
Spine1  -3.47312 1.54606 -2.74489
HEad  -77.971 -1.31818 10.3281
LeftShoulder1  -1.94126e-019 -3.10601e-018 -2.51263e-017
LeftArm  13.5483 29.9491 -70.0812
LeftForeArm  126.057 -74.03 -138.574
LeftHand  0.296363 -1.65506 -4.75349
RightShoulder  -4.96962e-017 0 -2.36833e-017
RightArm  20.6668 -23.0003 71.178
RightForeArm  145.024 80.0037 117.963
RightHand  -0.00255178 4.59315 -0.320066
LeftUpLeg  -6.05182 2.53994 -8.59238
LeftLeg  4.966 21.0744 0.461174
LeftFoot  -1.07712 -0.00533519 -0.24785
LeftToes  -2.01196 1.49739e-006 1.00523e-007
599
root  -38.8543 34.6621 6.35767 -174.569 42.3772 177.672
RightUpLeg  -17.4089 -15.9051 -3.00883
RightLeg  3.90025 2.48847 0.0103302
RightFoot  17.2077 -0.0537754 0.877546
RightToes  -26.6853 -0.1233 -0.229006
Spine  -1.76031 0.769839 -1.79424
Spine1  -3.55444 1.61732 -2.85464
HEad  -77.6267 -1.47083 10.1003
LeftShoulder1  -1.94126e-019 -3.10601e-018 -2.51263e-017
LeftArm  14.0067 30.2612 -69.8718
LeftForeArm  126.04 -74.1227 -138.318
LeftHand  0.308165 -1.82638 -4.81449
RightShoulder  -4.96962e-017 0 -2.36833e-017
RightArm  20.9538 -23.0762 71.0383
RightForeArm  145.218 80.0109 117.977
RightHand  0.00084444 4.60345 -0.280963
LeftUpLeg  -6.06831 2.51692 -8.52792
LeftLeg  4.8467 20.9523 0.415958
LeftFoot  -1.04658 -0.00608304 -0.233823
LeftToes  -2.07627 1.49739e-006 1.00523e-007
600
root  -38.827 34.6664 6.32967 -174.336 42.1998 177.836
RightUpLeg  -17.1991 -16.0596 -2.88396
RightLeg  3.43422 2.49088 -0.00998597
RightFoot  17.3695 -0.0546266 0.884234
RightToes  -26.5621 -0.123958 -0.229716
Spine  -1.79585 0.810096 -1.83723
Spine1  -3.62724 1.69156 -2.94021
HEad  -77.3119 -1.55104 9.94558
LeftShoulder1  -1.94126e-019 -3.10601e-018 -2.51263e-017
LeftArm  14.2134 30.6686 -69.6903
LeftForeArm  126.073 -74.1848 -138.154
LeftHand  0.3192 -2.14361 -4.75305
RightShoulder  -4.96962e-017 0 -2.36833e-017
RightArm  21.0141 -23.2034 70.9195
RightForeArm  145.641 79.9712 118.406
RightHand  -0.00115747 4.54968 -0.302448
LeftUpLeg  -6.14404 2.38871 -8.40356
LeftLeg  4.89297 20.8972 0.431417
LeftFoot  -1.08961 -0.00583952 -0.24932
LeftToes  -2.03024 1.49739e-006 1.00523e-007
